<?xml version="1.0" standalone="no"?>
<!DOCTYPE svg PUBLIC "-//W3C//DTD SVG 20010904//EN"
 "http://www.w3.org/TR/2001/REC-SVG-20010904/DTD/svg10.dtd">
<svg version="1.0" xmlns="http://www.w3.org/2000/svg"
 width="512.000000pt" height="512.000000pt" viewBox="0 0 512.000000 512.000000"
 preserveAspectRatio="xMidYMid meet">

<g transform="translate(0.000000,512.000000) scale(0.100000,-0.100000)"
fill="#000000" stroke="none">
<path d="M1405 4670 c-26 -12 -207 -187 -497 -477 -481 -482 -478 -479 -478
-567 0 -88 -1 -86 479 -569 273 -274 472 -467 496 -479 78 -41 192 -21 252 44
51 55 69 166 37 231 -9 18 -134 150 -277 295 l-262 262 1670 0 c1134 0 1682 3
1708 11 21 5 53 24 73 41 124 109 88 309 -65 363 -38 13 -236 15 -1714 15
l-1671 0 266 268 c275 276 288 293 288 372 0 78 -53 159 -125 191 -53 25 -130
24 -180 -1z"/>
<path d="M3534 2541 c-68 -31 -124 -117 -124 -192 0 -79 13 -95 288 -371 l267
-268 -1674 0 c-1225 0 -1684 -3 -1712 -11 -200 -60 -195 -357 7 -408 30 -8
542 -11 1711 -11 l1667 0 -265 -267 c-273 -276 -289 -296 -289 -373 0 -74 56
-160 124 -191 53 -24 130 -24 181 0 56 27 938 912 960 963 19 48 19 118 0 166
-22 51 -904 936 -960 963 -51 24 -128 24 -181 0z"/>
</g>
</svg>
