<?xml version="1.0" standalone="no"?>
<!DOCTYPE svg PUBLIC "-//W3C//DTD SVG 20010904//EN"
 "http://www.w3.org/TR/2001/REC-SVG-20010904/DTD/svg10.dtd">
<svg version="1.0" xmlns="http://www.w3.org/2000/svg"
 width="512.000000pt" height="512.000000pt" viewBox="0 0 512.000000 512.000000"
 preserveAspectRatio="xMidYMid meet">

<g transform="translate(0.000000,512.000000) scale(0.100000,-0.100000)"
fill="#000000" stroke="none">
<path d="M3765 5029 c-3039 -707 -3353 -782 -3415 -811 -126 -61 -233 -202
-260 -343 -8 -43 -10 -496 -8 -1636 l3 -1575 37 -75 c46 -93 112 -158 206
-202 l67 -32 754 -3 754 -3 51 -43 c117 -98 233 -159 376 -197 114 -30 318
-33 434 -6 150 36 272 96 391 194 l64 52 753 3 753 3 67 32 c94 44 160 109
206 202 l37 75 0 1455 c0 1386 -1 1459 -18 1509 -40 113 -148 216 -264 252
-52 16 -93 20 -208 20 l-143 0 -4 353 c-4 326 -6 357 -26 418 -83 253 -358
416 -607 358z m219 -323 c61 -36 95 -88 107 -167 5 -35 8 -192 7 -349 l-3
-285 -1577 -5 c-1575 -5 -1577 -5 -1605 -26 -90 -66 -79 -205 20 -253 l43 -21
1837 0 c1168 0 1845 -4 1861 -10 14 -5 35 -24 46 -42 19 -31 20 -51 20 -320
l0 -286 -487 -4 c-531 -5 -527 -4 -648 -66 -67 -34 -175 -144 -208 -212 -53
-110 -57 -147 -57 -495 0 -250 4 -334 15 -384 44 -184 192 -332 376 -376 52
-12 150 -15 537 -15 l472 0 0 -325 c0 -272 -3 -331 -15 -355 -32 -62 -14 -60
-691 -60 -583 0 -616 1 -609 18 5 9 19 55 33 102 22 75 25 104 25 240 0 175
-15 250 -77 384 -116 253 -321 430 -593 513 -80 24 -102 27 -253 27 -151 0
-173 -3 -253 -27 -291 -89 -510 -291 -617 -569 -74 -191 -78 -452 -10 -631 11
-28 20 -53 20 -54 0 -2 -277 -3 -615 -3 -676 0 -658 -2 -690 60 -13 26 -15
212 -15 1568 0 1656 -2 1574 50 1630 11 12 31 28 43 36 12 8 326 85 697 172
371 86 1123 262 1670 390 759 178 1007 233 1046 231 33 -2 67 -13 98 -31z
m756 -2541 l0 -475 -467 0 c-524 0 -515 -1 -580 73 -52 59 -55 83 -51 417 3
287 4 307 24 345 25 48 88 95 141 105 21 4 239 8 486 9 l447 1 0 -475z m-2026
-545 c213 -54 382 -215 449 -425 31 -100 31 -281 -2 -375 -68 -195 -221 -347
-416 -412 -58 -19 -90 -23 -190 -22 -102 1 -131 4 -193 27 -101 35 -174 81
-246 153 -113 113 -173 246 -183 410 -26 421 371 749 781 644z"/>
<path d="M4112 2290 c-99 -61 -95 -203 8 -257 54 -29 84 -29 140 0 138 70 86
277 -70 277 -27 0 -58 -8 -78 -20z"/>
<path d="M2486 1416 c-58 -35 -75 -75 -76 -173 l0 -83 -81 0 c-102 0 -149 -23
-180 -87 -34 -70 -15 -135 55 -187 22 -17 46 -22 116 -24 l88 -4 4 -88 c3 -95
15 -122 72 -164 38 -29 114 -29 152 0 57 42 69 69 72 164 l4 88 88 4 c70 2 94
7 116 24 71 52 89 117 54 189 -31 64 -75 85 -180 85 l-80 0 0 81 c0 66 -4 89
-22 121 -42 74 -130 98 -202 54z"/>
</g>
</svg>
